<?xml version="1.0" standalone="no"?>
<!DOCTYPE svg PUBLIC "-//W3C//DTD SVG 20010904//EN"
 "http://www.w3.org/TR/2001/REC-SVG-20010904/DTD/svg10.dtd">
<svg version="1.0" xmlns="http://www.w3.org/2000/svg"
 width="64.000000pt" height="38.000000pt" viewBox="0 0 64.000000 38.000000"
 preserveAspectRatio="xMidYMid meet">
<metadata>
Created by potrace 1.16, written by Peter Selinger 2001-2019
</metadata>
<g transform="translate(0.000000,38.000000) scale(0.100000,-0.100000)"
fill="#000000" stroke="none">
<path d="M0 190 l0 -190 320 0 320 0 0 190 0 190 -320 0 -320 0 0 -190z m398
17 c13 -9 14 -9 8 1 -13 22 12 13 28 -10 40 -56 4 -148 -57 -148 -53 0 -95 33
-109 86 -11 41 -14 43 -20 23 -7 -24 -7 -24 -5 1 1 14 7 24 14 23 6 -1 18 6
27 16 19 21 92 27 114 8z m79 -74 c-3 -10 -5 -4 -5 12 0 17 2 24 5 18 2 -7 2
-21 0 -30z"/>
<path d="M338 176 c-22 -16 -23 -49 -2 -70 20 -20 38 -20 58 0 21 21 20 47 -2
67 -22 20 -31 21 -54 3z m12 -16 c0 -5 -5 -10 -11 -10 -5 0 -7 5 -4 10 3 6 8
10 11 10 2 0 4 -4 4 -10z"/>
</g>
</svg>
